Coordinates
version=1
nRows=12
nColumns=34
inDegrees=yes

Units are S.I. units (second, meters, Newtons, ...)
If the header above contains a line with 'inDegrees', this indicates whether rotational values are in degrees (yes) or radians (no).

endheader
time	pelvis_tilt	pelvis_list	pelvis_rotation	pelvis_tx	pelvis_ty	pelvis_tz	hip_flexion_r	hip_adduction_r	hip_rotation_r	knee_angle_r	ankle_angle_r	subtalar_angle_r	mtp_angle_r	hip_flexion_l	hip_adduction_l	hip_rotation_l	knee_angle_l	ankle_angle_l	subtalar_angle_l	mtp_angle_l	lumbar_extension	lumbar_bending	lumbar_rotation	arm_flex_r	arm_add_r	arm_rot_r	elbow_flex_r	pro_sup_r	arm_flex_l	arm_add_l	arm_rot_l	elbow_flex_l	pro_sup_l
      8.16666670	    -23.82764186	      4.41022512	     -9.81590662	      0.17228128	      0.53708459	     -0.04299717	     95.03797184	     -4.25829938	      4.46412452	    102.29890678	     34.83440969	     -7.34673513	      0.00000000	     96.87828357	    -18.07205310	      3.91466330	    103.29401852	     29.95360253	     -4.11823887	      0.00000000	    -27.35203374	     -5.76994338	      0.91133338	    106.79675479	     -1.62410215	     69.99652529	    122.44654252	     81.69595376	    119.40680516	      5.36044339	     91.18654387	    120.87391752	     68.80468222
      8.18333330	    -23.64056017	      4.45214820	     -9.79555831	      0.17183736	      0.53380404	     -0.04316858	     95.21081307	     -4.31701412	      4.54276920	    102.73265898	     34.84758590	     -7.34172847	      0.00000000	     96.97470602	    -18.04700871	      4.05204563	    103.64575305	     29.94813612	     -4.12866970	      0.00000000	    -27.40179621	     -5.84919459	      1.03585668	    106.80358204	     -1.61404893	     70.04105167	    122.39846962	     81.71125671	    119.37593494	      5.43026954	     91.24842559	    120.94425919	     68.77813692
      8.20000000	    -23.64921708	      4.54511448	     -9.86159489	      0.17192683	      0.53440506	     -0.04327735	     95.40880555	     -4.22313745	      4.61294055	    102.92655004	     34.84613452	     -7.17709425	      0.00000000	     97.15175449	    -18.14137161	      3.97945011	    103.85910179	     29.79705741	     -4.21410733	      0.00000000	    -27.36529039	     -5.90663785	      1.24214364	    106.71764427	     -1.58507192	     70.45724059	    122.27086821	     81.77255303	    119.63896958	      5.44951444	     91.30275811	    120.87604433	     68.65324744
      8.21666670	    -23.56085584	      4.56928148	     -9.85901554	      0.17297791	      0.53241857	     -0.04294758	     95.47834992	     -4.30129805	      4.59947741	    103.23199717	     34.85380470	     -7.17809224	      0.00000000	     97.18037828	    -18.16276337	      4.02274003	    104.06000894	     29.80449735	     -4.24188198	      0.00000000	    -27.33392979	     -5.88877506	      1.24741314	    106.72288220	     -1.57926007	     70.49500224	    122.31124739	     81.78349611	    119.67893229	      5.37812174	     91.30864838	    120.82337176	     68.62750340
      8.23333330	    -23.60156854	      4.57349559	     -9.83771344	      0.17315064	      0.53184189	     -0.04314830	     95.65046867	     -4.38407885	      4.63231804	    103.43403091	     34.91235612	     -7.12074936	      0.00000000	     97.32637733	    -18.06426287	      4.13360522	    104.25090763	     29.79620928	     -4.26267941	      0.00000000	    -27.22265601	     -5.74890121	      1.05746668	    106.76161858	     -1.48617298	     70.53249710	    122.71522953	     81.82678802	    120.00455621	      4.82238453	     91.20496109	    120.40478619	     68.51387991
      8.25000000	    -23.60825035	      4.57075137	     -9.84243740	      0.17249640	      0.53249670	     -0.04251626	     95.64963679	     -4.38968010	      4.63532629	    103.43907753	     34.91271890	     -7.12111146	      0.00000000	     97.32419896	    -18.06270587	      4.13408368	    104.25675853	     29.79575595	     -4.26279288	      0.00000000	    -27.22046687	     -5.74738753	      1.05661472	    106.76182992	     -1.48592024	     70.53242849	    122.71637215	     81.82689667	    120.00547640	      4.82186181	     91.20455250	    120.40396631	     68.51356740
      8.26666670	    -23.57304149	      4.58724923	     -9.77067133	      0.17140894	      0.53277112	     -0.04165689	     95.69128228	     -4.42609200	      4.62074577	    103.50668674	     34.89812323	     -7.11536458	      0.00000000	     97.37134515	    -18.04004354	      4.17091721	    104.27496204	     29.46017944	     -4.25465572	      0.00000000	    -27.22901984	     -5.76175178	      0.92181136	    106.75777533	     -1.37205628	     70.53650899	    123.17261851	     81.86478549	    120.26278922	      4.32025092	     91.14534899	    120.07878183	     68.42503233
      8.28333330	    -23.60683496	      4.56726203	     -9.73818894	      0.17222360	      0.53403304	     -0.04229393	     95.60839134	     -4.45583189	      4.56293662	    103.36140585	     34.84074065	     -7.08384164	      0.00000000	     97.30396870	    -18.04036274	      4.14093093	    104.05227471	     29.34633995	     -4.29948991	      0.00000000	    -27.22746022	     -5.79220543	      0.83000563	    106.81940538	     -1.35414128	     70.49253884	    123.25428563	     81.87917129	    120.23457526	      4.43705802	     91.17709634	    120.09783091	     68.38908395
      8.30000000	    -23.49399676	      4.58244694	     -9.70669504	      0.17233167	      0.53569946	     -0.04222120	     95.33979967	     -4.52573045	      4.53727719	    103.17223977	     34.54410935	     -6.99775469	      0.00000000	     96.98713758	    -18.00327395	      4.01810215	    103.78315130	     28.86005597	     -4.62356512	      0.00000000	    -27.40714342	     -5.86582319	      0.65692126	    106.72388571	     -1.45137381	     70.33435444	    123.64151927	     81.93764415	    120.39221549	      4.40100997	     91.30374801	    120.05532076	     68.25477778
      8.31666670	    -23.44228839	      4.59815675	     -9.69869145	      0.17516714	      0.53715196	     -0.04178262	     95.02409442	     -4.57528151	      4.52731109	    102.95665275	     34.58338024	     -7.09219211	      0.00000000	     96.58510268	    -18.04039235	      3.90675176	    103.53802082	     28.73285089	     -4.80816304	      0.00000000	    -27.40023951	     -5.97088069	      0.66373557	    106.49408056	     -1.72793359	     70.12045909	    123.57068965	     81.96995549	    120.08206451	      4.77664637	     91.49427298	    120.32382174	     68.16994175
      8.33333330	    -23.47823454	      4.68054976	     -9.75378541	      0.17144212	      0.54143871	     -0.04621204	     94.75542261	     -4.67827023	      4.53364438	    102.30851342	     34.20413891	     -6.96289632	      0.00000000	     96.29130094	    -17.87627371	      3.45274389	    103.03036526	     28.73230123	     -4.98222322	      0.00000000	    -27.48017439	     -5.97512787	      0.61501495	    106.24479875	     -1.79403273	     70.31124682	    123.38595363	     82.01152905	    120.12630843	      4.99480949	     91.52399467	    120.14734870	     68.06566927
      8.35000000	    -23.31971356	      4.76846044	     -9.74040111	      0.17421215	      0.54518048	     -0.04467935	     94.14923994	     -4.84049049	      4.64116030	    101.68018720	     34.18331392	     -6.96585399	      0.00000000	     95.41733614	    -17.72741370	      3.01376522	    102.31706071	     28.65185980	     -5.21424553	      0.00000000	    -27.50409180	     -6.12529310	      0.67204992	    105.99452710	     -2.06889915	     70.97934229	    122.97781902	     82.10970638	    119.37980664	      5.47491316	     91.79512731	    119.96025974	     67.84332496
